<svg width="34" height="27" viewBox="0 0 34 27" fill="none" xmlns="http://www.w3.org/2000/svg">
<g clip-path="url(#clip0_746_98)">
<path d="M6.8 3.79688C7.13815 3.79688 7.46245 3.93022 7.70156 4.16757C7.94067 4.40492 8.075 4.72684 8.075 5.0625C8.075 5.39816 7.94067 5.72008 7.70156 5.95743C7.46245 6.19478 7.13815 6.32812 6.8 6.32812C6.46185 6.32812 6.13755 6.19478 5.89844 5.95743C5.65933 5.72008 5.525 5.39816 5.525 5.0625C5.525 4.72684 5.65933 4.40492 5.89844 4.16757C6.13755 3.93022 6.46185 3.79688 6.8 3.79688ZM8.5 8.92793C10.0034 8.2793 11.05 6.79219 11.05 5.0625C11.05 2.73164 9.14813 0.84375 6.8 0.84375C4.45188 0.84375 2.55 2.73164 2.55 5.0625C2.55 6.79219 3.59656 8.2793 5.1 8.92793V11.8125H1.7C0.759687 11.8125 0 12.5666 0 13.5C0 14.4334 0.759687 15.1875 1.7 15.1875H15.3V18.0721C13.7966 18.7207 12.75 20.2078 12.75 21.9375C12.75 24.2684 14.6519 26.1562 17 26.1562C19.3481 26.1562 21.25 24.2684 21.25 21.9375C21.25 20.2078 20.2034 18.7207 18.7 18.0721V15.1875H32.3C33.2403 15.1875 34 14.4334 34 13.5C34 12.5666 33.2403 11.8125 32.3 11.8125H28.9V8.92793C30.4034 8.2793 31.45 6.79219 31.45 5.0625C31.45 2.73164 29.5481 0.84375 27.2 0.84375C24.8519 0.84375 22.95 2.73164 22.95 5.0625C22.95 6.79219 23.9966 8.2793 25.5 8.92793V11.8125H8.5V8.92793ZM25.925 5.0625C25.925 4.72684 26.0593 4.40492 26.2984 4.16757C26.5375 3.93022 26.8618 3.79688 27.2 3.79688C27.5382 3.79688 27.8625 3.93022 28.1016 4.16757C28.3407 4.40492 28.475 4.72684 28.475 5.0625C28.475 5.39816 28.3407 5.72008 28.1016 5.95743C27.8625 6.19478 27.5382 6.32812 27.2 6.32812C26.8618 6.32812 26.5375 6.19478 26.2984 5.95743C26.0593 5.72008 25.925 5.39816 25.925 5.0625ZM17 20.6719C17.3382 20.6719 17.6625 20.8052 17.9016 21.0426C18.1407 21.2799 18.275 21.6018 18.275 21.9375C18.275 22.2732 18.1407 22.5951 17.9016 22.8324C17.6625 23.0698 17.3382 23.2031 17 23.2031C16.6618 23.2031 16.3375 23.0698 16.0984 22.8324C15.8593 22.5951 15.725 22.2732 15.725 21.9375C15.725 21.6018 15.8593 21.2799 16.0984 21.0426C16.3375 20.8052 16.6618 20.6719 17 20.6719Z" fill="black"/>
</g>
<defs>
<clipPath id="clip0_746_98">
<rect width="34" height="27" fill="black"/>
</clipPath>
</defs>
</svg>
