<svg width="33" height="28" viewBox="0 0 33 28" fill="none" xmlns="http://www.w3.org/2000/svg">
<path d="M3.66667 3.6875C3.1625 3.6875 2.75 4.10938 2.75 4.625V23.375C2.75 23.8906 3.1625 24.3125 3.66667 24.3125H29.3333C29.8375 24.3125 30.25 23.8906 30.25 23.375V4.625C30.25 4.10938 29.8375 3.6875 29.3333 3.6875H3.66667ZM0 4.625C0 2.55664 1.64427 0.875 3.66667 0.875H29.3333C31.3557 0.875 33 2.55664 33 4.625V23.375C33 25.4434 31.3557 27.125 29.3333 27.125H3.66667C1.64427 27.125 0 25.4434 0 23.375V4.625ZM5.5 8.375C5.5 7.87772 5.69315 7.40081 6.03697 7.04918C6.38079 6.69754 6.8471 6.5 7.33333 6.5C7.81956 6.5 8.28588 6.69754 8.6297 7.04918C8.97351 7.40081 9.16667 7.87772 9.16667 8.375C9.16667 8.87228 8.97351 9.34919 8.6297 9.70082C8.28588 10.0525 7.81956 10.25 7.33333 10.25C6.8471 10.25 6.38079 10.0525 6.03697 9.70082C5.69315 9.34919 5.5 8.87228 5.5 8.375ZM11.4583 8.375C11.4583 7.5957 12.0714 6.96875 12.8333 6.96875H25.6667C26.4286 6.96875 27.0417 7.5957 27.0417 8.375C27.0417 9.1543 26.4286 9.78125 25.6667 9.78125H12.8333C12.0714 9.78125 11.4583 9.1543 11.4583 8.375ZM11.4583 14C11.4583 13.2207 12.0714 12.5938 12.8333 12.5938H25.6667C26.4286 12.5938 27.0417 13.2207 27.0417 14C27.0417 14.7793 26.4286 15.4062 25.6667 15.4062H12.8333C12.0714 15.4062 11.4583 14.7793 11.4583 14ZM11.4583 19.625C11.4583 18.8457 12.0714 18.2188 12.8333 18.2188H25.6667C26.4286 18.2188 27.0417 18.8457 27.0417 19.625C27.0417 20.4043 26.4286 21.0312 25.6667 21.0312H12.8333C12.0714 21.0312 11.4583 20.4043 11.4583 19.625ZM7.33333 15.875C6.8471 15.875 6.38079 15.6775 6.03697 15.3258C5.69315 14.9742 5.5 14.4973 5.5 14C5.5 13.5027 5.69315 13.0258 6.03697 12.6742C6.38079 12.3225 6.8471 12.125 7.33333 12.125C7.81956 12.125 8.28588 12.3225 8.6297 12.6742C8.97351 13.0258 9.16667 13.5027 9.16667 14C9.16667 14.4973 8.97351 14.9742 8.6297 15.3258C8.28588 15.6775 7.81956 15.875 7.33333 15.875ZM5.5 19.625C5.5 19.1277 5.69315 18.6508 6.03697 18.2992C6.38079 17.9475 6.8471 17.75 7.33333 17.75C7.81956 17.75 8.28588 17.9475 8.6297 18.2992C8.97351 18.6508 9.16667 19.1277 9.16667 19.625C9.16667 20.1223 8.97351 20.5992 8.6297 20.9508C8.28588 21.3025 7.81956 21.5 7.33333 21.5C6.8471 21.5 6.38079 21.3025 6.03697 20.9508C5.69315 20.5992 5.5 20.1223 5.5 19.625Z" fill="black"/>
</svg>
